<mxfile host="app.diagrams.net" modified="2021-04-22T13:48:08.519Z" agent="5.0 (Windows NT 10.0; Win64; x64) AppleWebKit/537.36 (KHTML, like Gecko) Chrome/89.0.4389.128 Safari/537.36" etag="u5A95Exj8MDWroEB7BCI" version="14.6.5" type="github">
  <diagram id="qRL0oaTHLtLF7RC7Mqzb" name="Page-1">
    <mxGraphModel dx="1422" dy="794" grid="1" gridSize="10" guides="1" tooltips="1" connect="1" arrows="1" fold="1" page="1" pageScale="1" pageWidth="827" pageHeight="1169" math="0" shadow="0">
      <root>
        <mxCell id="0" />
        <mxCell id="1" parent="0" />
        <mxCell id="wMnOfHqyuuJSkqPhQtuh-1" value="&lt;span style=&quot;color: rgb(77 , 77 , 77) ; background-color: rgb(255 , 255 , 255)&quot;&gt;&lt;font style=&quot;font-size: 14px&quot;&gt;ExecutorRegistryThread&lt;/font&gt;&lt;/span&gt;" style="shape=umlLifeline;perimeter=lifelinePerimeter;whiteSpace=wrap;html=1;container=1;collapsible=0;recursiveResize=0;outlineConnect=0;" vertex="1" parent="1">
          <mxGeometry x="180" y="120" width="140" height="960" as="geometry" />
        </mxCell>
        <mxCell id="wMnOfHqyuuJSkqPhQtuh-2" value="返回" style="edgeStyle=orthogonalEdgeStyle;rounded=0;orthogonalLoop=1;jettySize=auto;html=1;labelBackgroundColor=#FFFFFF;fontColor=#000000;" edge="1" parent="1" source="wMnOfHqyuuJSkqPhQtuh-3" target="wMnOfHqyuuJSkqPhQtuh-1">
          <mxGeometry relative="1" as="geometry">
            <Array as="points">
              <mxPoint x="340" y="1040" />
              <mxPoint x="340" y="1040" />
            </Array>
          </mxGeometry>
        </mxCell>
        <mxCell id="wMnOfHqyuuJSkqPhQtuh-3" value="&lt;pre style=&quot;font-family: &amp;quot;courier new&amp;quot;, monospace; font-size: 10.5pt;&quot;&gt;&lt;pre style=&quot;font-family: &amp;quot;courier new&amp;quot; , monospace ; font-size: 10.5pt&quot;&gt;AdminBizImpl&lt;/pre&gt;&lt;/pre&gt;" style="shape=umlLifeline;perimeter=lifelinePerimeter;whiteSpace=wrap;html=1;container=1;collapsible=0;recursiveResize=0;outlineConnect=0;labelBorderColor=none;labelBackgroundColor=none;" vertex="1" parent="1">
          <mxGeometry x="420" y="120" width="140" height="960" as="geometry" />
        </mxCell>
        <mxCell id="wMnOfHqyuuJSkqPhQtuh-4" value="" style="endArrow=classic;html=1;startArrow=none;" edge="1" parent="1" source="wMnOfHqyuuJSkqPhQtuh-5" target="wMnOfHqyuuJSkqPhQtuh-3">
          <mxGeometry width="50" height="50" relative="1" as="geometry">
            <mxPoint x="290" y="290" as="sourcePoint" />
            <mxPoint x="290" y="240" as="targetPoint" />
            <Array as="points">
              <mxPoint x="380" y="260" />
            </Array>
          </mxGeometry>
        </mxCell>
        <mxCell id="wMnOfHqyuuJSkqPhQtuh-5" value="每个服务地址进行注册" style="text;html=1;align=center;verticalAlign=middle;resizable=0;points=[];autosize=1;strokeColor=none;" vertex="1" parent="1">
          <mxGeometry x="290" y="240" width="140" height="20" as="geometry" />
        </mxCell>
        <mxCell id="wMnOfHqyuuJSkqPhQtuh-6" value="" style="endArrow=none;html=1;" edge="1" parent="1" source="wMnOfHqyuuJSkqPhQtuh-1" target="wMnOfHqyuuJSkqPhQtuh-5">
          <mxGeometry width="50" height="50" relative="1" as="geometry">
            <mxPoint x="244.5" y="260" as="sourcePoint" />
            <mxPoint x="484.5" y="260" as="targetPoint" />
            <Array as="points" />
          </mxGeometry>
        </mxCell>
        <mxCell id="wMnOfHqyuuJSkqPhQtuh-7" value="" style="edgeStyle=orthogonalEdgeStyle;rounded=0;orthogonalLoop=1;jettySize=auto;html=1;" edge="1" parent="1" source="wMnOfHqyuuJSkqPhQtuh-10" target="wMnOfHqyuuJSkqPhQtuh-17">
          <mxGeometry relative="1" as="geometry">
            <Array as="points">
              <mxPoint x="790" y="400" />
              <mxPoint x="790" y="400" />
            </Array>
          </mxGeometry>
        </mxCell>
        <mxCell id="wMnOfHqyuuJSkqPhQtuh-8" value="接收请求,并解析请求数据" style="edgeLabel;html=1;align=center;verticalAlign=middle;resizable=0;points=[];" vertex="1" connectable="0" parent="wMnOfHqyuuJSkqPhQtuh-7">
          <mxGeometry x="-0.1526" y="1" relative="1" as="geometry">
            <mxPoint x="10" y="-14" as="offset" />
          </mxGeometry>
        </mxCell>
        <mxCell id="wMnOfHqyuuJSkqPhQtuh-9" value="返回" style="edgeStyle=orthogonalEdgeStyle;rounded=0;orthogonalLoop=1;jettySize=auto;html=1;labelBackgroundColor=#FFFFFF;fontColor=#000000;" edge="1" parent="1" source="wMnOfHqyuuJSkqPhQtuh-10" target="wMnOfHqyuuJSkqPhQtuh-3">
          <mxGeometry relative="1" as="geometry">
            <Array as="points">
              <mxPoint x="590" y="1000" />
              <mxPoint x="590" y="1000" />
            </Array>
          </mxGeometry>
        </mxCell>
        <mxCell id="wMnOfHqyuuJSkqPhQtuh-10" value="&lt;pre style=&quot;font-family: &amp;quot;courier new&amp;quot;, monospace; font-size: 10.5pt;&quot;&gt;&lt;pre style=&quot;font-family: &amp;quot;courier new&amp;quot; , monospace ; font-size: 10.5pt&quot;&gt;XxlJobRemotingUtil&lt;/pre&gt;&lt;/pre&gt;" style="shape=umlLifeline;perimeter=lifelinePerimeter;whiteSpace=wrap;html=1;container=1;collapsible=0;recursiveResize=0;outlineConnect=0;labelBackgroundColor=none;" vertex="1" parent="1">
          <mxGeometry x="640" y="120" width="100" height="920" as="geometry" />
        </mxCell>
        <mxCell id="wMnOfHqyuuJSkqPhQtuh-11" value="" style="endArrow=classic;html=1;" edge="1" parent="1" source="wMnOfHqyuuJSkqPhQtuh-3" target="wMnOfHqyuuJSkqPhQtuh-10">
          <mxGeometry width="50" height="50" relative="1" as="geometry">
            <mxPoint x="530" y="340" as="sourcePoint" />
            <mxPoint x="660" y="435" as="targetPoint" />
            <Array as="points">
              <mxPoint x="550" y="330" />
              <mxPoint x="590" y="330" />
            </Array>
          </mxGeometry>
        </mxCell>
        <mxCell id="wMnOfHqyuuJSkqPhQtuh-12" value="post请求服务端" style="edgeLabel;html=1;align=center;verticalAlign=middle;resizable=0;points=[];" vertex="1" connectable="0" parent="wMnOfHqyuuJSkqPhQtuh-11">
          <mxGeometry x="-0.245" y="-3" relative="1" as="geometry">
            <mxPoint x="17" y="-13" as="offset" />
          </mxGeometry>
        </mxCell>
        <mxCell id="wMnOfHqyuuJSkqPhQtuh-13" value="" style="edgeStyle=orthogonalEdgeStyle;rounded=0;orthogonalLoop=1;jettySize=auto;html=1;labelBackgroundColor=#FFFFFF;" edge="1" parent="1" source="wMnOfHqyuuJSkqPhQtuh-17" target="wMnOfHqyuuJSkqPhQtuh-20">
          <mxGeometry relative="1" as="geometry">
            <Array as="points">
              <mxPoint x="970" y="480" />
              <mxPoint x="970" y="480" />
            </Array>
          </mxGeometry>
        </mxCell>
        <mxCell id="wMnOfHqyuuJSkqPhQtuh-14" value="&lt;pre style=&quot;font-family: &amp;quot;courier new&amp;quot;, monospace; font-size: 10.5pt;&quot;&gt;registry&lt;/pre&gt;" style="edgeLabel;html=1;align=center;verticalAlign=middle;resizable=0;points=[];labelBackgroundColor=#FFFFFF;" vertex="1" connectable="0" parent="wMnOfHqyuuJSkqPhQtuh-13">
          <mxGeometry x="-0.2722" y="2" relative="1" as="geometry">
            <mxPoint x="10" as="offset" />
          </mxGeometry>
        </mxCell>
        <mxCell id="wMnOfHqyuuJSkqPhQtuh-15" style="edgeStyle=orthogonalEdgeStyle;rounded=0;orthogonalLoop=1;jettySize=auto;html=1;labelBackgroundColor=#FFFFFF;fontColor=#000000;" edge="1" parent="1" source="wMnOfHqyuuJSkqPhQtuh-17" target="wMnOfHqyuuJSkqPhQtuh-10">
          <mxGeometry relative="1" as="geometry">
            <Array as="points">
              <mxPoint x="780" y="960" />
              <mxPoint x="780" y="960" />
            </Array>
          </mxGeometry>
        </mxCell>
        <mxCell id="wMnOfHqyuuJSkqPhQtuh-16" value="返回" style="edgeLabel;html=1;align=center;verticalAlign=middle;resizable=0;points=[];fontColor=#000000;" vertex="1" connectable="0" parent="wMnOfHqyuuJSkqPhQtuh-15">
          <mxGeometry x="0.1587" y="-1" relative="1" as="geometry">
            <mxPoint as="offset" />
          </mxGeometry>
        </mxCell>
        <mxCell id="wMnOfHqyuuJSkqPhQtuh-17" value="&lt;pre style=&quot;font-family: &amp;#34;courier new&amp;#34; , monospace ; font-size: 10.5pt&quot;&gt;&lt;pre style=&quot;font-family: &amp;#34;courier new&amp;#34; , monospace ; font-size: 10.5pt&quot;&gt;&lt;pre style=&quot;font-family: &amp;#34;courier new&amp;#34; , monospace ; font-size: 10.5pt&quot;&gt;&lt;span style=&quot;background-color: rgb(255 , 255 , 255)&quot;&gt;JobApiController&lt;/span&gt;&lt;/pre&gt;&lt;/pre&gt;&lt;/pre&gt;" style="shape=umlLifeline;perimeter=lifelinePerimeter;whiteSpace=wrap;html=1;container=1;collapsible=0;recursiveResize=0;outlineConnect=0;" vertex="1" parent="1">
          <mxGeometry x="827" y="120" width="123" height="920" as="geometry" />
        </mxCell>
        <mxCell id="wMnOfHqyuuJSkqPhQtuh-18" style="edgeStyle=orthogonalEdgeStyle;rounded=0;orthogonalLoop=1;jettySize=auto;html=1;labelBackgroundColor=#FFFFFF;fontColor=#000000;" edge="1" parent="1" source="wMnOfHqyuuJSkqPhQtuh-20" target="wMnOfHqyuuJSkqPhQtuh-17">
          <mxGeometry relative="1" as="geometry">
            <Array as="points">
              <mxPoint x="960" y="880" />
              <mxPoint x="960" y="880" />
            </Array>
          </mxGeometry>
        </mxCell>
        <mxCell id="wMnOfHqyuuJSkqPhQtuh-19" value="返回结果" style="edgeLabel;html=1;align=center;verticalAlign=middle;resizable=0;points=[];fontColor=#000000;" vertex="1" connectable="0" parent="wMnOfHqyuuJSkqPhQtuh-18">
          <mxGeometry x="0.137" y="1" relative="1" as="geometry">
            <mxPoint as="offset" />
          </mxGeometry>
        </mxCell>
        <mxCell id="wMnOfHqyuuJSkqPhQtuh-20" value="&lt;pre style=&quot;font-family: &amp;#34;courier new&amp;#34; , monospace ; font-size: 10.5pt&quot;&gt;&lt;pre style=&quot;font-family: &amp;#34;courier new&amp;#34; , monospace ; font-size: 10.5pt&quot;&gt;&lt;pre style=&quot;font-family: &amp;#34;courier new&amp;#34; , monospace ; font-size: 10.5pt&quot;&gt;&lt;pre style=&quot;font-family: &amp;#34;courier new&amp;#34; , monospace ; font-size: 10.5pt&quot;&gt;&lt;pre style=&quot;font-family: &amp;#34;courier new&amp;#34; , monospace ; font-size: 10.5pt&quot;&gt;&lt;span style=&quot;background-color: rgb(255 , 255 , 255)&quot;&gt;AdminBizImpl&lt;/span&gt;&lt;/pre&gt;&lt;/pre&gt;&lt;/pre&gt;&lt;/pre&gt;&lt;/pre&gt;" style="shape=umlLifeline;perimeter=lifelinePerimeter;whiteSpace=wrap;html=1;container=1;collapsible=0;recursiveResize=0;outlineConnect=0;" vertex="1" parent="1">
          <mxGeometry x="1000" y="120" width="120" height="920" as="geometry" />
        </mxCell>
        <mxCell id="wMnOfHqyuuJSkqPhQtuh-21" style="edgeStyle=orthogonalEdgeStyle;rounded=0;orthogonalLoop=1;jettySize=auto;html=1;labelBackgroundColor=#FFFFFF;fontColor=#000000;" edge="1" parent="1" source="wMnOfHqyuuJSkqPhQtuh-25" target="wMnOfHqyuuJSkqPhQtuh-30">
          <mxGeometry relative="1" as="geometry">
            <Array as="points">
              <mxPoint x="1380" y="640" />
              <mxPoint x="1380" y="640" />
            </Array>
          </mxGeometry>
        </mxCell>
        <mxCell id="wMnOfHqyuuJSkqPhQtuh-22" value="&lt;pre style=&quot;font-family: &amp;#34;courier new&amp;#34; , monospace ; font-size: 10.5pt&quot;&gt;异步线程新增or修改数据库注册表&lt;/pre&gt;" style="edgeLabel;html=1;align=center;verticalAlign=middle;resizable=0;points=[];fontColor=#000000;" vertex="1" connectable="0" parent="wMnOfHqyuuJSkqPhQtuh-21">
          <mxGeometry x="-0.3492" y="1" relative="1" as="geometry">
            <mxPoint x="44" y="-29" as="offset" />
          </mxGeometry>
        </mxCell>
        <mxCell id="wMnOfHqyuuJSkqPhQtuh-23" value="" style="edgeStyle=orthogonalEdgeStyle;rounded=0;orthogonalLoop=1;jettySize=auto;html=1;labelBackgroundColor=#FFFFFF;fontColor=#000000;" edge="1" parent="1" source="wMnOfHqyuuJSkqPhQtuh-25" target="wMnOfHqyuuJSkqPhQtuh-20">
          <mxGeometry relative="1" as="geometry">
            <Array as="points">
              <mxPoint x="1150" y="800" />
              <mxPoint x="1150" y="800" />
            </Array>
          </mxGeometry>
        </mxCell>
        <mxCell id="wMnOfHqyuuJSkqPhQtuh-24" value="返回结果" style="edgeLabel;html=1;align=center;verticalAlign=middle;resizable=0;points=[];fontColor=#000000;" vertex="1" connectable="0" parent="wMnOfHqyuuJSkqPhQtuh-23">
          <mxGeometry x="0.245" y="-3" relative="1" as="geometry">
            <mxPoint x="1" as="offset" />
          </mxGeometry>
        </mxCell>
        <mxCell id="wMnOfHqyuuJSkqPhQtuh-25" value="&lt;pre style=&quot;font-family: &amp;#34;courier new&amp;#34; , monospace ; font-size: 10.5pt&quot;&gt;&lt;pre style=&quot;font-family: &amp;#34;courier new&amp;#34; , monospace ; font-size: 10.5pt&quot;&gt;&lt;pre style=&quot;font-family: &amp;#34;courier new&amp;#34; , monospace ; font-size: 10.5pt&quot;&gt;&lt;pre style=&quot;font-family: &amp;#34;courier new&amp;#34; , monospace ; font-size: 10.5pt&quot;&gt;&lt;pre style=&quot;font-family: &amp;#34;courier new&amp;#34; , monospace ; font-size: 10.5pt&quot;&gt;&lt;pre style=&quot;font-family: &amp;#34;courier new&amp;#34; , monospace ; font-size: 10.5pt&quot;&gt;&lt;span style=&quot;background-color: rgb(255 , 255 , 255)&quot;&gt;JobRegistryHelper&lt;/span&gt;&lt;/pre&gt;&lt;/pre&gt;&lt;/pre&gt;&lt;/pre&gt;&lt;/pre&gt;&lt;/pre&gt;" style="shape=umlLifeline;perimeter=lifelinePerimeter;whiteSpace=wrap;html=1;container=1;collapsible=0;recursiveResize=0;outlineConnect=0;labelBorderColor=none;" vertex="1" parent="1">
          <mxGeometry x="1200" y="120" width="120" height="920" as="geometry" />
        </mxCell>
        <mxCell id="wMnOfHqyuuJSkqPhQtuh-26" value="" style="edgeStyle=orthogonalEdgeStyle;rounded=0;orthogonalLoop=1;jettySize=auto;html=1;" edge="1" parent="1" source="wMnOfHqyuuJSkqPhQtuh-20" target="wMnOfHqyuuJSkqPhQtuh-25">
          <mxGeometry relative="1" as="geometry">
            <mxPoint x="1080" y="600" as="sourcePoint" />
            <mxPoint x="1230" y="600" as="targetPoint" />
            <Array as="points">
              <mxPoint x="1150" y="560" />
              <mxPoint x="1150" y="560" />
            </Array>
          </mxGeometry>
        </mxCell>
        <mxCell id="wMnOfHqyuuJSkqPhQtuh-27" value="&lt;pre style=&quot;font-family: &amp;quot;courier new&amp;quot;, monospace; font-size: 10.5pt;&quot;&gt;registry&lt;/pre&gt;" style="edgeLabel;html=1;align=center;verticalAlign=middle;resizable=0;points=[];labelBackgroundColor=#FFFFFF;" vertex="1" connectable="0" parent="wMnOfHqyuuJSkqPhQtuh-26">
          <mxGeometry x="-0.2722" y="2" relative="1" as="geometry">
            <mxPoint x="12" y="-8" as="offset" />
          </mxGeometry>
        </mxCell>
        <mxCell id="wMnOfHqyuuJSkqPhQtuh-28" style="edgeStyle=orthogonalEdgeStyle;rounded=0;orthogonalLoop=1;jettySize=auto;html=1;labelBackgroundColor=#FFFFFF;fontColor=#000000;" edge="1" parent="1" source="wMnOfHqyuuJSkqPhQtuh-30" target="wMnOfHqyuuJSkqPhQtuh-25">
          <mxGeometry relative="1" as="geometry">
            <Array as="points">
              <mxPoint x="1380" y="730" />
              <mxPoint x="1380" y="730" />
            </Array>
          </mxGeometry>
        </mxCell>
        <mxCell id="wMnOfHqyuuJSkqPhQtuh-29" value="返回结果" style="edgeLabel;html=1;align=center;verticalAlign=middle;resizable=0;points=[];fontColor=#000000;" vertex="1" connectable="0" parent="wMnOfHqyuuJSkqPhQtuh-28">
          <mxGeometry x="0.0878" y="-4" relative="1" as="geometry">
            <mxPoint x="1" as="offset" />
          </mxGeometry>
        </mxCell>
        <mxCell id="wMnOfHqyuuJSkqPhQtuh-30" value="&lt;pre style=&quot;font-family: &amp;quot;courier new&amp;quot;, monospace; font-size: 10.5pt;&quot;&gt;&lt;pre style=&quot;font-family: &amp;quot;courier new&amp;quot; , monospace ; font-size: 10.5pt&quot;&gt;&lt;pre style=&quot;font-family: &amp;quot;courier new&amp;quot; , monospace ; font-size: 10.5pt&quot;&gt;&lt;pre style=&quot;font-family: &amp;quot;courier new&amp;quot; , monospace ; font-size: 10.5pt&quot;&gt;&lt;pre style=&quot;font-family: &amp;quot;courier new&amp;quot; , monospace ; font-size: 10.5pt&quot;&gt;&lt;pre style=&quot;font-family: &amp;quot;courier new&amp;quot; , monospace ; font-size: 10.5pt&quot;&gt;JobRegistryHelper&lt;/pre&gt;&lt;/pre&gt;&lt;/pre&gt;&lt;/pre&gt;&lt;/pre&gt;&lt;/pre&gt;" style="shape=umlLifeline;perimeter=lifelinePerimeter;whiteSpace=wrap;html=1;container=1;collapsible=0;recursiveResize=0;outlineConnect=0;labelBackgroundColor=#FFFFFF;labelBorderColor=#000000;size=30;" vertex="1" parent="1">
          <mxGeometry x="1460" y="125" width="100" height="920" as="geometry" />
        </mxCell>
        <mxCell id="wMnOfHqyuuJSkqPhQtuh-31" value="这里单线程不断间隔30秒注册一次" style="text;html=1;strokeColor=none;fillColor=none;align=center;verticalAlign=middle;whiteSpace=wrap;rounded=0;labelBackgroundColor=#FFFFFF;fontColor=#000000;" vertex="1" parent="1">
          <mxGeometry x="290" y="300" width="140" height="30" as="geometry" />
        </mxCell>
      </root>
    </mxGraphModel>
  </diagram>
</mxfile>
